<svg width="256" height="256" viewBox="0 0 256 256" fill="none" xmlns="http://www.w3.org/2000/svg">
  <defs>
    <linearGradient id="g1" x1="32" y1="32" x2="224" y2="224" gradientUnits="userSpaceOnUse">
      <stop offset="0" stop-color="#A78BFA"/>
      <stop offset="1" stop-color="#60A5FA"/>
    </linearGradient>
    <linearGradient id="g2" x1="64" y1="64" x2="192" y2="192" gradientUnits="userSpaceOnUse">
      <stop offset="0" stop-color="#22D3EE"/>
      <stop offset="1" stop-color="#A78BFA"/>
    </linearGradient>
    <filter id="shadow" x="-20%" y="-20%" width="140%" height="140%" color-interpolation-filters="sRGB">
      <feDropShadow dx="0" dy="8" stdDeviation="12" flood-color="#000" flood-opacity="0.25"/>
    </filter>
  </defs>

  <!-- Outer rounded hexagon frame -->
  <g filter="url(#shadow)">
    <path d="M128 12c6.2 0 12.2 1.6 17.5 4.7l63.3 36.5c10.8 6.2 17.5 17.8 17.5 30.3v88c0 12.5-6.7 24-17.5 30.3l-63.3 36.5c-5.3 3.1-11.3 4.7-17.5 4.7s-12.2-1.6-17.5-4.7l-63.3-36.5C36.4 195.5 29.7 184 29.7 171.5v-88c0-12.5 6.7-24 17.5-30.3l63.3-36.5C115.8 13.6 121.8 12 128 12z" fill="url(#g1)"/>
  </g>

  <!-- Sync arcs -->
  <path d="M76 130c0-28.7 23.3-52 52-52 16.7 0 31.6 7.9 41.3 20.2" stroke="white" stroke-opacity="0.9" stroke-width="10" stroke-linecap="round"/>
  <path d="M180 126c0 28.7-23.3 52-52 52-16.7 0-31.6-7.9-41.3-20.2" stroke="url(#g2)" stroke-width="10" stroke-linecap="round"/>

  <!-- Nodes -->
  <circle cx="80" cy="128" r="10" fill="#22D3EE"/>
  <circle cx="176" cy="128" r="10" fill="#A78BFA"/>
  <circle cx="128" cy="80" r="8" fill="#fff" fill-opacity="0.9"/>
  <circle cx="128" cy="176" r="8" fill="#fff" fill-opacity="0.9"/>

  <!-- subtle inner highlight -->
  <circle cx="128" cy="128" r="96" fill="none" stroke="white" stroke-opacity="0.06" stroke-width="12"/>
</svg>


